<?xml version="1.0" encoding="UTF-8"?>
<svg xmlns="http://www.w3.org/2000/svg" viewBox="-17 -7 365 365">
  <g fill="#155dfc">
    <path d="M120.93,247.76c.31.44.49.62.12.71-23.75.04-93.79.23-101.22.23-.76-.02-.86-.44-1.5-1.38-.72-1.21-1.83-3.32-2.76-5.16-21.6-46.12-20.68-101.4,2.52-146.49.37-.58.57-1.43,1.26-1.43,20.37.01,49.59.06,75.29.09,12.19.01,22.01.03,25.61.03.95.04,1.65-.22.84.76-18.17,19.33-30.39,41.76-33.91,67.24-3.23,32.09,11.78,61.18,33.69,85.34l.05.07Z"/>
    <path d="M284.21,303.29c-50.79,41.87-123.06,52.16-183.57,25.41-6.24-2.85-4.34-3.85,1.53-4.65,55.7-8.33,100.99-44.4,122.77-94.74,1.02-1.59,1.9-1.32,3.89-1.34,22.59.01,94.16.09,106.09.13,2.72-.16-.78,6.35-1.18,7.98-7.44,18.38-17.86,34.42-30.59,48.98-5.79,5.68-12.92,12.84-18.84,18.13l-.11.09Z"/>
    <path d="M274.93,33.63c27.31,19.6,47.25,45.15,59.64,76.48.71,1.85,1.08,3.11.87,3.68-12.02,1.51-83.83.02-106.62.51-2.42.13-3.31-.17-4.34-2.14-25.03-54.35-68.78-84.51-127.73-94.82-.76-.99,2.68-2.62,3.98-3.19C138.92-2.01,177.1-3.86,218.29,6.22c13.5,3.47,24.75,7.41,34.95,13.53,6.94,4.58,14.33,9.21,21.55,13.78l.15.1Z"/>
  </g>
</svg>
