<?xml version="1.0" encoding="UTF-8"?>
<svg id="Capa_2" data-name="Capa 2" xmlns="http://www.w3.org/2000/svg" viewBox="0 0 1658.05 343.46">
  <defs>
    <style>
      .cls-1 {
        fill: #fff;
      }
    </style>
  </defs>
  <g id="Capa_1-2" data-name="Capa 1">
    <g>
      <g>
        <path class="cls-1" d="M120.93,247.76c.31.44.49.62.12.71-23.75.04-93.79.23-101.22.23-.76-.02-.86-.44-1.5-1.38-.72-1.21-1.83-3.32-2.76-5.16-21.6-46.12-20.68-101.4,2.52-146.49.37-.58.57-1.43,1.26-1.43,20.37.01,49.59.06,75.29.09,12.19.01,22.01.03,25.61.03.95.04,1.65-.22.84.76-18.17,19.33-30.39,41.76-33.91,67.24-3.23,32.09,11.78,61.18,33.69,85.34l.05.07Z"/>
        <path class="cls-1" d="M284.21,303.29c-50.79,41.87-123.06,52.16-183.57,25.41-6.24-2.85-4.34-3.85,1.53-4.65,55.7-8.33,100.99-44.4,122.77-94.74,1.02-1.59,1.9-1.32,3.89-1.34,22.59.01,94.16.09,106.09.13,2.72-.16-.78,6.35-1.18,7.98-7.44,18.38-17.86,34.42-30.59,48.98-5.79,5.68-12.92,12.84-18.84,18.13l-.11.09Z"/>
        <path class="cls-1" d="M274.93,33.63c27.31,19.6,47.25,45.15,59.64,76.48.71,1.85,1.08,3.11.87,3.68-12.02,1.51-83.83.02-106.62.51-2.42.13-3.31-.17-4.34-2.14-25.03-54.35-68.78-84.51-127.73-94.82-.76-.99,2.68-2.62,3.98-3.19C138.92-2.01,177.1-3.86,218.29,6.22c13.5,3.47,24.75,7.41,34.95,13.53,6.94,4.58,14.33,9.21,21.55,13.78l.15.1Z"/>
      </g>
      <g>
        <path class="cls-1" d="M539.47,232.2c-10.45,7.67-23.34,11.51-38.68,11.51-10.94,0-20.48-1.92-28.64-5.75-8.16-3.83-14.98-9.1-20.44-15.79-5.47-6.69-9.55-14.36-12.24-23.01-2.69-8.65-4.04-17.79-4.04-27.42,0-10.12,1.35-19.5,4.04-28.15,2.69-8.65,6.69-16.28,12-22.89,5.3-6.61,11.95-11.75,19.95-15.42,7.99-3.67,17.3-5.51,27.91-5.51,9.79,0,18.64,1.63,26.56,4.9,7.92,3.27,14.48,8.2,19.71,14.81,5.22,6.61,8.48,14.98,9.79,25.09h24.48c-1.47-13.55-5.55-25.3-12.24-35.26-6.69-9.95-15.75-17.71-27.17-23.26-11.43-5.55-25.14-8.32-41.13-8.32s-29.13,2.69-40.4,8.08c-11.26,5.38-20.4,12.49-27.42,21.3-7.02,8.81-12.2,18.61-15.55,29.38-3.35,10.77-5.02,21.54-5.02,32.32v5.39c0,9.96,1.63,20.28,4.9,30.97,3.26,10.69,8.4,20.61,15.42,29.75,7.02,9.14,16.28,16.57,27.79,22.28,11.51,5.71,25.42,8.57,41.74,8.57s30.81-3.02,42.48-9.06c11.67-6.04,20.81-14.12,27.42-24.24,6.61-10.12,10.73-21.3,12.36-33.54h-24.48c-2.29,14.53-8.65,25.63-19.09,33.29Z"/>
        <polygon class="cls-1" points="597.74 82.61 597.74 101.22 615.86 101.22 615.86 261.33 639.36 261.33 639.36 101.22 639.36 82.61 615.86 82.61 597.74 82.61"/>
        <path class="cls-1" d="M772.54,133.29c-9.79-5.55-21.05-8.32-33.78-8.32s-24.61,2.81-34.64,8.45c-10.04,5.63-17.83,13.67-23.38,24.12-5.55,10.45-8.32,22.61-8.32,36.48s2.85,26.07,8.57,36.6c5.71,10.53,13.59,18.65,23.63,24.36,10.04,5.72,21.42,8.57,34.15,8.57,15.99,0,29.38-4.04,40.15-12.12,10.77-8.08,17.95-18.57,21.54-31.46h-23.99c-2.61,7.51-7.14,13.51-13.59,17.99-6.45,4.49-14.49,6.73-24.11,6.73-11.75,0-21.75-3.71-29.99-11.14-8.24-7.43-12.77-17.75-13.59-30.97h107.23c.49-4.73.73-9.22.73-13.47,0-12.24-2.65-23.22-7.96-32.93-5.31-9.71-12.85-17.34-22.65-22.89ZM695.42,184.46c1.14-12.73,5.67-22.69,13.59-29.87,7.91-7.18,17.5-10.77,28.77-10.77,7.83,0,14.97,1.59,21.42,4.77,6.44,3.18,11.55,7.83,15.3,13.95,3.75,6.12,5.63,13.43,5.63,21.91h-84.71Z"/>
        <path class="cls-1" d="M937.79,151.65c-4.24-7.67-10.69-14.03-19.34-19.1-8.65-5.06-18.85-7.59-30.6-7.59s-22.73,2.86-32.44,8.57c-9.71,5.72-17.34,13.75-22.89,24.12-5.55,10.37-8.32,22.4-8.32,36.11s2.77,25.63,8.32,36.23c5.55,10.61,13.14,18.85,22.77,24.73,9.63,5.88,20.4,8.81,32.32,8.81s21.75-2.57,30.48-7.71c8.73-5.14,15.3-11.63,19.71-19.46v24.97h22.52V127.17h-22.52v24.48ZM931.67,220.57c-4.08,7.59-9.59,13.38-16.52,17.38-6.94,4-14.57,6-22.89,6s-15.91-2-22.77-6c-6.86-4-12.32-9.79-16.4-17.38-4.08-7.59-6.12-16.52-6.12-26.81s2.04-18.93,6.12-26.44c4.08-7.51,9.55-13.22,16.4-17.14,6.86-3.92,14.44-5.88,22.77-5.88s15.95,2,22.89,6c6.94,4,12.44,9.75,16.52,17.26,4.08,7.51,6.12,16.32,6.12,26.44s-2.04,18.97-6.12,26.56Z"/>
        <path class="cls-1" d="M1020.3,148.96v-21.79h-22.28v134.16h22.28v-72.96c0-27.09,12.49-40.64,37.46-40.64h5.88v-23.01c-10.45,0-19.3,2.12-26.56,6.36-7.26,4.25-12.85,10.2-16.77,17.87Z"/>
        <path class="cls-1" d="M1191.79,181.03c-5.14-4.08-10.81-6.61-17.02-7.59,8.97-2.94,16.2-7.71,21.67-14.32,5.47-6.61,8.2-14.97,8.2-25.09,0-8.16-2.04-15.5-6.12-22.03-4.08-6.53-10.2-11.71-18.36-15.55-8.16-3.83-18.04-5.75-29.62-5.75h-61.21v170.64h63.65c11.42,0,21.34-2,29.75-6,8.41-4,14.81-9.47,19.22-16.4,4.41-6.94,6.61-14.73,6.61-23.38,0-6.86-1.51-13.3-4.53-19.34-3.02-6.04-7.1-11.1-12.24-15.18ZM1111.61,109.05h36.97c10.77,0,19.01,2.45,24.73,7.34,5.71,4.9,8.57,11.67,8.57,20.32s-2.86,15.42-8.57,20.32c-5.71,4.9-13.79,7.34-24.24,7.34h-37.46v-55.33ZM1176.98,235.14c-6.2,5.22-14.85,7.83-25.95,7.83h-39.42v-60.23h38.68c10.93,0,19.67,2.74,26.2,8.2,6.53,5.47,9.79,12.94,9.79,22.4s-3.1,16.57-9.3,21.79Z"/>
        <path class="cls-1" d="M1333.42,133.41c-10.28-5.63-21.79-8.45-34.52-8.45s-24.24,2.81-34.52,8.45c-10.28,5.63-18.4,13.71-24.36,24.24-5.96,10.53-8.94,22.65-8.94,36.36s2.9,26.07,8.69,36.6c5.79,10.53,13.79,18.65,23.99,24.36,10.2,5.72,21.58,8.57,34.15,8.57s24.32-2.85,34.76-8.57c10.44-5.71,18.73-13.83,24.85-24.36,6.12-10.53,9.18-22.73,9.18-36.6s-2.98-26.03-8.94-36.48c-5.96-10.44-14.08-18.48-24.36-24.12ZM1337.46,221.43c-4.33,7.51-10,13.14-17.02,16.89-7.02,3.76-14.53,5.63-22.52,5.63s-15.34-1.84-22.03-5.51c-6.69-3.67-12.04-9.26-16.04-16.77-4-7.5-6-16.73-6-27.66s2.04-19.91,6.12-27.42c4.08-7.51,9.51-13.1,16.28-16.77,6.77-3.67,14.24-5.51,22.4-5.51s15.42,1.84,22.28,5.51c6.86,3.67,12.4,9.27,16.65,16.77,4.24,7.51,6.37,16.65,6.37,27.42s-2.17,19.91-6.49,27.42Z"/>
        <path class="cls-1" d="M1490.1,133.41c-10.28-5.63-21.79-8.45-34.52-8.45s-24.24,2.81-34.52,8.45c-10.28,5.63-18.4,13.71-24.36,24.24-5.96,10.53-8.94,22.65-8.94,36.36s2.9,26.07,8.69,36.6c5.79,10.53,13.79,18.65,23.99,24.36,10.2,5.72,21.58,8.57,34.15,8.57s24.32-2.85,34.76-8.57c10.44-5.71,18.73-13.83,24.85-24.36,6.12-10.53,9.18-22.73,9.18-36.6s-2.98-26.03-8.94-36.48c-5.96-10.44-14.08-18.48-24.36-24.12ZM1494.14,221.43c-4.33,7.51-10,13.14-17.02,16.89-7.02,3.76-14.53,5.63-22.52,5.63s-15.34-1.84-22.03-5.51c-6.69-3.67-12.04-9.26-16.04-16.77-4-7.5-6-16.73-6-27.66s2.04-19.91,6.12-27.42c4.08-7.51,9.51-13.1,16.28-16.77,6.77-3.67,14.24-5.51,22.4-5.51s15.42,1.84,22.28,5.51c6.86,3.67,12.4,9.27,16.65,16.77,4.24,7.51,6.37,16.65,6.37,27.42s-2.17,19.91-6.49,27.42Z"/>
        <polygon class="cls-1" points="1594.64 194.01 1657.81 127.17 1626.72 127.17 1575.06 186.66 1575.06 80.17 1552.78 80.17 1552.78 261.33 1575.06 261.33 1575.06 202.09 1627.69 261.33 1658.05 261.33 1594.64 194.01"/>
      </g>
    </g>
  </g>
</svg>